<?xml version="1.0" encoding="UTF-8"?>
<svg width="62px" height="48px" viewBox="0 0 62 48" version="1.1" xmlns="http://www.w3.org/2000/svg" xmlns:xlink="http://www.w3.org/1999/xlink">
    <!-- Generator: Sketch 47.1 (45422) - http://www.bohemiancoding.com/sketch -->
    <title>wallet2</title>
    <desc>Created with Sketch.</desc>
    <defs></defs>
    <g id="Symbols" stroke="none" stroke-width="1" fill="none" fill-rule="evenodd">
        <g id="Test" transform="translate(-1.000000, -1.000000)">
            <g id="wallet2" transform="translate(2.000000, 2.000000)">
                <path d="M56,6 L50,6 L50,4 C50,1.791 48.209,0 46,0 L4,0 C1.791,0 0,1.791 0,4 L0,10 L0,36 L0,42 C0,44.209 1.791,46 4,46 L56,46 C58.209,46 60,44.209 60,42 L60,10 C60,7.791 58.209,6 56,6 Z" id="Shape" stroke="#000000" stroke-width="2"></path>
                <path d="M0,6 L50,6" id="Shape" stroke="#000000" stroke-width="2"></path>
                <path d="M54,21 C51.238,21 49,23.238 49,26 C49,28.762 51.238,31 54,31 L60,31 L60,21 L54,21 Z" id="Shape" stroke="#000000" stroke-width="2"></path>
                <circle id="Oval" fill="#000000" fill-rule="nonzero" cx="55" cy="26" r="2"></circle>
            </g>
        </g>
    </g>
</svg>